<?xml version="1.0" encoding="UTF-8"?>
<svg width="64px" height="78px" viewBox="0 0 64 78" version="1.1" xmlns="http://www.w3.org/2000/svg" xmlns:xlink="http://www.w3.org/1999/xlink">
    <!-- Generator: Sketch 47.1 (45422) - http://www.bohemiancoding.com/sketch -->
    <title>upload</title>
    <desc>Created with Sketch.</desc>
    <defs></defs>
    <g id="Symbols" stroke="none" stroke-width="1" fill="none" fill-rule="evenodd">
        <g id="upload">
            <g id="noun_652738_cc" fill-rule="nonzero" fill="#CBC9CD">
                <g id="Group">
                    <path d="M32.414,0 L0,0 L0,60 L47,60 L47,14.586 L32.414,0 Z M33,3.414 L43.586,14 L33,14 L33,3.414 Z M2,58 L2,2 L31,2 L31,16 L45,16 L45,58 L2,58 Z" id="Shape"></path>
                </g>
            </g>
            <g id="Group-2" transform="translate(31.000000, 42.000000)">
                <circle id="Oval" fill="#2B57AB" cx="15" cy="15" r="15"></circle>
                <g id="Icons/-upload" transform="translate(9.000000, 6.000000)" fill="#F8F7F7">
                    <g id="Group">
                        <polygon id="Line" fill-rule="nonzero" points="12.6578947 14.6666667 0.342105263 14.6666667 0.342105263 16.6666667 12.6578947 16.6666667"></polygon>
                        <path d="M5.47368421,0 L5.47368421,9.9 L1.50526316,6.26666667 L0.102631579,7.73333333 L5.81578947,12.9333333 C6.02105263,13.1 6.26052632,13.2 6.5,13.2 C6.73947368,13.2 7.01315789,13.1 7.18421053,12.9333333 L12.8631579,7.76666667 L11.4605263,6.3 L7.52631579,9.9 L7.52631579,0 L5.47368421,0 Z" id="Shape" fill-rule="nonzero" transform="translate(6.482895, 6.600000) scale(1, -1) translate(-6.482895, -6.600000) "></path>
                    </g>
                </g>
            </g>
        </g>
    </g>
</svg>