<?xml version="1.0" encoding="UTF-8"?>
<svg width="64px" height="78px" viewBox="0 0 64 78" version="1.1" xmlns="http://www.w3.org/2000/svg" xmlns:xlink="http://www.w3.org/1999/xlink">
    <!-- Generator: Sketch 47.1 (45422) - http://www.bohemiancoding.com/sketch -->
    <title>upload-hover</title>
    <desc>Created with Sketch.</desc>
    <defs></defs>
    <g id="Symbols" stroke="none" stroke-width="1" fill="none" fill-rule="evenodd">
        <g id="upload-hover">
            <g id="noun_652738_cc" fill-rule="nonzero" fill="#CBC9CD">
                <g id="Group">
                    <path d="M32.414,0 L0,0 L0,60 L47,60 L47,14.586 L32.414,0 Z M33,3.414 L43.586,14 L33,14 L33,3.414 Z M2,58 L2,2 L31,2 L31,16 L45,16 L45,58 L2,58 Z" id="Shape"></path>
                </g>
            </g>
            <g id="Group-2" transform="translate(28.000000, 39.000000)">
                <circle id="Oval" fill="#2B57AB" cx="18" cy="18" r="18"></circle>
                <g id="Icons/-upload" transform="translate(10.363636, 7.090909)" fill="#F8F7F7">
                    <g id="Group">
                        <polygon id="Line" fill-rule="nonzero" points="15.5789474 18.3333333 0.421052632 18.3333333 0.421052632 20.8333333 15.5789474 20.8333333"></polygon>
                        <path d="M6.73684211,0 L6.73684211,12.375 L1.85263158,7.83333333 L0.126315789,9.66666667 L7.15789474,16.1666667 C7.41052632,16.375 7.70526316,16.5 8,16.5 C8.29473684,16.5 8.63157895,16.375 8.84210526,16.1666667 L15.8315789,9.70833333 L14.1052632,7.875 L9.26315789,12.375 L9.26315789,0 L6.73684211,0 Z" id="Shape" fill-rule="nonzero" transform="translate(7.978947, 8.250000) scale(1, -1) translate(-7.978947, -8.250000) "></path>
                    </g>
                </g>
            </g>
        </g>
    </g>
</svg>